<?xml version="1.0" standalone="no"?>
<!DOCTYPE svg PUBLIC "-//W3C//DTD SVG 20010904//EN"
 "http://www.w3.org/TR/2001/REC-SVG-20010904/DTD/svg10.dtd">
<svg version="1.0" xmlns="http://www.w3.org/2000/svg"
 width="330.000000pt" height="150.000000pt" viewBox="0 0 330.000000 150.000000"
 preserveAspectRatio="xMidYMid meet">

<g transform="translate(0.000000,150.000000) scale(0.100000,-0.100000)"
fill="#000000" stroke="none">
<path d="M380 785 l0 -455 1235 0 1235 0 0 455 0 455 -1235 0 -1235 0 0 -455z
m772 225 c75 -21 59 -57 -18 -39 -150 34 -275 -111 -221 -258 29 -78 116 -130
196 -119 77 12 84 11 88 -2 6 -17 -57 -42 -105 -42 -66 0 -128 28 -170 75
-155 177 7 447 230 385z m703 -1 c71 -18 165 -111 165 -164 0 -27 -37 -17 -50
15 -7 16 -30 45 -51 64 -127 116 -319 31 -319 -141 0 -114 78 -193 190 -193
77 0 145 42 181 113 11 20 24 37 30 37 36 0 2 -89 -53 -135 -48 -41 -90 -55
-160 -55 -142 1 -231 93 -231 236 1 162 137 264 298 223z m-1147 -169 c3 -196
1 -200 -90 -200 -51 0 -58 2 -58 20 0 18 7 20 55 20 l55 0 0 158 c0 87 3 162
7 166 22 22 28 -11 31 -164z m88 145 c3 -14 5 -94 3 -177 -4 -137 -6 -157 -26
-189 -28 -45 -61 -60 -145 -67 -58 -4 -69 -2 -74 13 -10 25 13 35 84 35 55 0
66 3 87 26 25 26 25 30 25 199 0 94 3 175 7 178 14 15 33 6 39 -18z m679 5
c26 -21 1 -40 -38 -29 -95 27 -167 -11 -167 -88 0 -52 17 -73 89 -107 33 -16
63 -38 67 -49 17 -53 -34 -96 -98 -82 -48 11 -98 37 -98 51 0 22 18 25 47 10
27 -13 59 -19 96 -17 33 2 17 29 -29 47 -61 23 -100 62 -114 112 -9 36 -8 49
9 87 29 66 69 87 153 82 37 -2 75 -10 83 -17z m868 6 c3 -8 3 -17 0 -20 -4 -3
-53 -6 -109 -6 l-104 0 -2 -207 c-3 -177 -5 -208 -18 -208 -13 0 -15 32 -18
215 -1 118 0 220 2 227 8 20 242 18 249 -1z m347 -6 c0 -19 -7 -20 -159 -20
-153 0 -181 5 -166 30 4 6 70 10 166 10 152 0 159 -1 159 -20z m-1522 -76 c18
-12 20 -19 11 -30 -8 -10 -16 -11 -29 -4 -24 13 -86 13 -111 0 -10 -6 -26 -24
-34 -40 -40 -78 4 -160 85 -160 23 0 50 4 60 10 13 7 21 6 30 -5 9 -11 6 -17
-14 -30 -34 -22 -108 -21 -149 2 -87 50 -88 202 -3 254 39 24 122 25 154 3z
m265 5 c27 -7 37 -15 37 -30 0 -18 -4 -20 -32 -13 -98 23 -110 -3 -24 -49 33
-18 68 -44 79 -59 25 -34 27 -101 3 -146 -35 -68 -159 -92 -245 -48 -37 20
-43 51 -8 43 12 -3 43 -11 69 -18 91 -23 160 18 160 97 0 44 -27 75 -91 103
-27 11 -53 27 -60 35 -20 24 -9 69 19 83 31 15 44 16 93 2z m427 -4 c86 -44
105 -155 39 -230 -36 -40 -87 -59 -135 -50 -37 6 -104 59 -104 80 0 26 22 27
48 2 56 -53 110 -56 155 -9 33 36 41 65 27 107 -14 44 -54 75 -94 75 -33 0
-96 -33 -96 -50 0 -5 -9 -10 -20 -10 -37 0 -17 50 33 80 38 24 106 26 147 5z
m479 2 c17 -21 3 -27 -66 -27 -60 0 -63 -1 -63 -24 0 -23 5 -25 48 -28 34 -2
47 -7 47 -18 0 -12 -14 -15 -65 -15 l-65 0 -3 54 c-2 37 1 57 10 62 22 14 144
11 157 -4z m155 7 c14 -5 16 -31 16 -184 0 -143 -3 -179 -14 -183 -8 -3 -17
-3 -20 0 -3 4 -6 80 -6 170 l0 163 -49 0 c-51 0 -75 15 -50 31 16 10 100 12
123 3z m194 -16 c3 -15 -4 -18 -47 -18 l-51 0 -2 -167 c-3 -142 -5 -168 -18
-168 -13 0 -15 27 -18 175 -1 96 0 180 3 188 3 9 22 12 67 10 50 -2 63 -6 66
-20z m-383 -168 c0 -11 -13 -16 -47 -18 l-48 -3 0 -78 c0 -82 -3 -93 -26 -84
-11 4 -14 27 -14 97 0 51 3 96 7 100 4 4 34 6 68 4 45 -2 60 -7 60 -18z"/>
</g>
</svg>
